<svg width="160" height="160" viewBox="0 0 160 160" fill="none" xmlns="http://www.w3.org/2000/svg">
<rect width="8" height="8" fill="white"/>
<rect x="152" y="152" width="8" height="8" fill="white"/>
<rect width="160" height="160" rx="80" fill="white"/>
<path d="M79.4482 90.1184C76.2015 90.1184 73.0444 90.3891 69.99 90.9067L74.6938 82.7596C76.2816 82.6549 77.8715 82.602 79.4482 82.602C83.1416 82.602 86.8998 82.9067 90.5333 83.4896L72.2687 51.8545L41.864 104.517L37.5187 96.9911L72.2004 36.9209L72.2718 37.0447L72.3402 36.9262L114.194 109.419H105.503L95.7215 92.476C90.6247 90.9389 85.176 90.1184 79.4482 90.1184Z" fill="black"/>
<path d="M116.899 104.644L76.3774 34.4594H85.0678L121.244 97.1181L116.899 104.644Z" fill="black"/>
<path d="M76.6806 69.0855L60.042 97.9045C65.9953 96.1084 73.0036 95.3064 79.6153 95.3064C80.1496 95.3064 80.6855 95.3127 81.2222 95.3254C84.9784 95.4142 88.7727 95.8116 92.4087 96.4904L97.9598 106.105C92.2773 104.038 86.1265 102.823 79.6153 102.823C69.9853 102.823 61.1413 105.204 53.4391 109.348L53.5602 109.131L53.3942 109.419H44.7036L72.3355 61.5594L76.6806 69.0855Z" fill="black"/>
<path fill-rule="evenodd" clip-rule="evenodd" d="M80 146.939C116.969 146.939 146.939 116.969 146.939 80.0001C146.939 43.0308 116.969 13.0613 80 13.0613C43.0307 13.0613 13.0612 43.0308 13.0612 80.0001C13.0612 116.969 43.0307 146.939 80 146.939ZM80.1633 138.776C112.714 138.776 139.102 112.388 139.102 79.8368C139.102 47.2859 112.714 20.8981 80.1633 20.8981C47.6124 20.8981 21.2245 47.2859 21.2245 79.8368C21.2245 112.388 47.6124 138.776 80.1633 138.776Z" fill="black"/>
<path fill-rule="evenodd" clip-rule="evenodd" d="M80 160C124.183 160 160 124.183 160 80C160 35.8173 124.183 0 80 0C35.8173 0 0 35.8173 0 80C0 124.183 35.8173 160 80 160ZM80.3265 152.49C120.361 152.49 152.816 120.035 152.816 80C152.816 39.9649 120.361 7.5102 80.3265 7.5102C40.2915 7.5102 7.83673 39.9649 7.83673 80C7.83673 120.035 40.2915 152.49 80.3265 152.49Z" fill="black"/>
</svg>
