<svg width="160" height="160" viewBox="0 0 160 160" fill="none" xmlns="http://www.w3.org/2000/svg">
<rect width="8" height="8" fill="white"/>
<rect x="152" y="152" width="8" height="8" fill="white"/>
<circle cx="80" cy="80" r="79" fill="black"/>
<path d="M91.1094 80C91.1094 86.1355 86.1355 91.1094 80 91.1094C73.8645 91.1094 68.8906 86.1355 68.8906 80C68.8906 73.8645 73.8645 68.8906 80 68.8906C86.1355 68.8906 91.1094 73.8645 91.1094 80Z" fill="white"/>
<path d="M40.5 80C40.5 86.1355 35.5262 91.1094 29.3906 91.1094C23.2551 91.1094 18.2812 86.1355 18.2812 80C18.2812 73.8645 23.2551 68.8906 29.3906 68.8906C35.5262 68.8906 40.5 73.8645 40.5 80Z" fill="white"/>
<path d="M141.102 80C141.102 86.1355 136.128 91.1094 129.992 91.1094C123.857 91.1094 118.883 86.1355 118.883 80C118.883 73.8645 123.857 68.8906 129.992 68.8906C136.128 68.8906 141.102 73.8645 141.102 80Z" fill="white"/>
<path d="M91.1094 21.9844C91.1094 28.1199 86.1355 33.0938 80 33.0938C73.8645 33.0938 68.8906 28.1199 68.8906 21.9844C68.8906 15.8488 73.8645 10.875 80 10.875C86.1355 10.875 91.1094 15.8488 91.1094 21.9844Z" fill="white"/>
<path d="M91.1094 138.016C91.1094 144.151 86.1355 149.125 80 149.125C73.8645 149.125 68.8906 144.151 68.8906 138.016C68.8906 131.88 73.8645 126.906 80 126.906C86.1355 126.906 91.1094 131.88 91.1094 138.016Z" fill="white"/>
<path d="M91.1094 50.9922C91.1094 57.1277 86.1355 62.1016 80 62.1016C73.8645 62.1016 68.8906 57.1277 68.8906 50.9922C68.8906 44.8566 73.8645 39.8828 80 39.8828C86.1355 39.8828 91.1094 44.8566 91.1094 50.9922Z" fill="white"/>
<path d="M91.1094 109.008C91.1094 115.143 86.1355 120.117 80 120.117C73.8645 120.117 68.8906 115.143 68.8906 109.008C68.8906 102.872 73.8645 97.8984 80 97.8984C86.1355 97.8984 91.1094 102.872 91.1094 109.008Z" fill="white"/>
<path d="M40.5 50.9922C40.5 57.1277 35.5262 62.1016 29.3906 62.1016C23.2551 62.1016 18.2812 57.1277 18.2812 50.9922C18.2812 44.8566 23.2551 39.8828 29.3906 39.8828C35.5262 39.8828 40.5 44.8566 40.5 50.9922Z" fill="white"/>
<path d="M40.5 109.008C40.5 115.143 35.5262 120.117 29.3906 120.117C23.2551 120.117 18.2812 115.143 18.2812 109.008C18.2812 102.872 23.2551 97.8984 29.3906 97.8984C35.5262 97.8984 40.5 102.872 40.5 109.008Z" fill="white"/>
<path d="M141.102 50.9922C141.102 57.1277 136.128 62.1016 129.992 62.1016C123.857 62.1016 118.883 57.1277 118.883 50.9922C118.883 44.8566 123.857 39.8828 129.992 39.8828C136.128 39.8828 141.102 44.8566 141.102 50.9922Z" fill="white"/>
<path d="M141.102 109.008C141.102 115.143 136.128 120.117 129.992 120.117C123.857 120.117 118.883 115.143 118.883 109.008C118.883 102.872 123.857 97.8984 129.992 97.8984C136.128 97.8984 141.102 102.872 141.102 109.008Z" fill="white"/>
<path d="M116.414 94.8125C116.414 100.948 111.44 105.922 105.305 105.922C99.1691 105.922 94.1953 100.948 94.1953 94.8125C94.1953 88.677 99.1691 83.7031 105.305 83.7031C111.44 83.7031 116.414 88.677 116.414 94.8125Z" fill="white"/>
<path d="M116.414 36.7969C116.414 42.9324 111.44 47.9062 105.305 47.9062C99.1691 47.9062 94.1953 42.9324 94.1953 36.7969C94.1953 30.6613 99.1691 25.6875 105.305 25.6875C111.44 25.6875 116.414 30.6613 116.414 36.7969Z" fill="white"/>
<path d="M116.414 65.8047C116.414 71.9402 111.44 76.9141 105.305 76.9141C99.1691 76.9141 94.1953 71.9402 94.1953 65.8047C94.1953 59.6691 99.1691 54.6953 105.305 54.6953C111.44 54.6953 116.414 59.6691 116.414 65.8047Z" fill="white"/>
<path d="M116.414 123.82C116.414 129.956 111.44 134.93 105.305 134.93C99.1691 134.93 94.1953 129.956 94.1953 123.82C94.1953 117.685 99.1691 112.711 105.305 112.711C111.44 112.711 116.414 117.685 116.414 123.82Z" fill="white"/>
<path d="M65.8047 94.8125C65.8047 100.948 60.8309 105.922 54.6953 105.922C48.5598 105.922 43.5859 100.948 43.5859 94.8125C43.5859 88.677 48.5598 83.7031 54.6953 83.7031C60.8309 83.7031 65.8047 88.677 65.8047 94.8125Z" fill="white"/>
<path d="M65.8047 36.7969C65.8047 42.9324 60.8309 47.9062 54.6953 47.9062C48.5598 47.9062 43.5859 42.9324 43.5859 36.7969C43.5859 30.6613 48.5598 25.6875 54.6953 25.6875C60.8309 25.6875 65.8047 30.6613 65.8047 36.7969Z" fill="white"/>
<path d="M65.8047 65.8047C65.8047 71.9402 60.8309 76.9141 54.6953 76.9141C48.5598 76.9141 43.5859 71.9402 43.5859 65.8047C43.5859 59.6691 48.5598 54.6953 54.6953 54.6953C60.8309 54.6953 65.8047 59.6691 65.8047 65.8047Z" fill="white"/>
<path d="M65.8047 123.82C65.8047 129.956 60.8309 134.93 54.6953 134.93C48.5598 134.93 43.5859 129.956 43.5859 123.82C43.5859 117.685 48.5598 112.711 54.6953 112.711C60.8309 112.711 65.8047 117.685 65.8047 123.82Z" fill="white"/>
</svg>
