<svg width="160" height="160" viewBox="0 0 160 160" fill="none" xmlns="http://www.w3.org/2000/svg">
<g clip-path="url(#clip0_201_78)">
<path d="M79.218 33.5588C95.1518 33.5588 108.069 26.0464 108.069 16.7794C108.069 7.5124 95.1518 0 79.218 0C63.2843 0 50.3674 7.5124 50.3674 16.7794C50.3674 26.0464 63.2843 33.5588 79.218 33.5588Z" fill="black"/>
<path d="M79.218 159.989C95.1518 159.989 108.069 152.476 108.069 143.209C108.069 133.942 95.1518 126.43 79.218 126.43C63.2843 126.43 50.3674 133.942 50.3674 143.209C50.3674 152.476 63.2843 159.989 79.218 159.989Z" fill="black"/>
<path d="M39.0128 56.7855C46.9796 42.9869 46.9279 28.0421 38.8973 23.4055C30.8666 18.7689 17.8981 26.1961 9.93118 39.9947C1.96431 53.7934 2.01602 68.7381 10.0467 73.3747C18.0773 78.0114 31.0459 70.5841 39.0128 56.7855Z" fill="black"/>
<path d="M148.492 119.993C156.459 106.194 156.412 91.252 148.387 86.6185C140.361 81.985 127.397 89.4148 119.43 103.213C111.464 117.012 111.511 131.954 119.536 136.588C127.561 141.221 140.526 133.791 148.492 119.993Z" fill="black"/>
<path d="M38.9013 136.584C46.932 131.947 46.9837 117.003 39.0168 103.204C31.0499 89.4052 18.0814 81.978 10.0507 86.6146C2.02005 91.2513 1.96834 106.196 9.93522 119.995C17.9021 133.793 30.8706 141.221 38.9013 136.584Z" fill="black"/>
<path d="M148.394 73.3784C156.419 68.7449 156.466 53.8027 148.499 40.004C140.532 26.2054 127.568 18.7756 119.543 23.4091C111.518 28.0426 111.47 42.9848 119.437 56.7835C127.404 70.5821 140.368 78.0119 148.394 73.3784Z" fill="black"/>
</g>
<defs>
<clipPath id="clip0_201_78">
<rect width="152.705" height="160" fill="white" transform="translate(4)"/>
</clipPath>
</defs>
</svg>
