<svg width="160" height="160" viewBox="0 0 160 160" fill="none" xmlns="http://www.w3.org/2000/svg">
<rect width="8" height="8" fill="white"/>
<rect x="152" y="152" width="8" height="8" fill="white"/>
<path d="M60 47C60 35.9543 68.9543 27 80 27C91.0457 27 100 35.9543 100 47V114C100 125.046 91.0457 134 80 134C68.9543 134 60 125.046 60 114V47Z" fill="black"/>
<path d="M102 47C102 35.9543 110.954 27 122 27C133.046 27 142 35.9543 142 47V114C142 125.046 133.046 134 122 134C110.954 134 102 125.046 102 114V47Z" fill="black"/>
<path d="M18 47C18 35.9543 26.9543 27 38 27C49.0457 27 58 35.9543 58 47V114C58 125.046 49.0457 134 38 134C26.9543 134 18 125.046 18 114V47Z" fill="black"/>
</svg>
